<svg width="20" height="20" viewBox="0 0 20 20" fill="none" xmlns="http://www.w3.org/2000/svg">
<path d="M14.1971 0H5.8129C2.17108 0 0 2.17 0 5.81V14.18C0 17.83 2.17108 20 5.8129 20H14.1871C17.8289 20 20 17.83 20 14.19V5.81C20.01 2.17 17.8389 0 14.1971 0ZM13.3667 12.3C13.6568 12.59 13.6568 13.07 13.3667 13.36C13.2166 13.51 13.0265 13.58 12.8364 13.58C12.6463 13.58 12.4562 13.51 12.3061 13.36L10.005 11.06L7.70384 13.36C7.55376 13.51 7.36367 13.58 7.17357 13.58C6.98348 13.58 6.79339 13.51 6.64331 13.36C6.35317 13.07 6.35317 12.59 6.64331 12.3L8.94446 10L6.64331 7.7C6.35317 7.41 6.35317 6.93 6.64331 6.64C6.93345 6.35 7.41369 6.35 7.70384 6.64L10.005 8.94L12.3061 6.64C12.5963 6.35 13.0765 6.35 13.3667 6.64C13.6568 6.93 13.6568 7.41 13.3667 7.7L11.0655 10L13.3667 12.3Z" fill="#202020"/>
</svg>
